# xmcd
#
# Track frame offsets: 
#        182
#        12152
#        26725
#        37545
#        50340
#        62437
#        75590
#        88707
#        100372
#        113247
#        134960
#        148752
#        159100
#        172465
#        183380
#        196140
#        208515
#        222885
#        236357
#        246812
#
# Disc length: 3474 seconds
#
# Revision: 4
# Processed by: cddbd v1.5.2PL0 Copyright (c) Steve Scherf et al.
# Submitted via: ExactAudioCopyFreeDBPlugin 1.0
#
DISCID=100d9014
DTITLE=Various Artist - The Blues Box [CD 2)
DYEAR=1992
DGENRE=Blues
TTITLE0=John Lee Hooker - I'm In The Mood
TTITLE1=John Mayall - Why Worry
TTITLE2=Howlin' Wolf - Little Red Rooster
TTITLE3=Muddy Waters - (I'm Your) Hoochie Coochie Man
TTITLE4=Howlin' Wolf - Spoonful
TTITLE5=BB King - When My Heart Beats Like A Hammer
TTITLE6=Muddy Waters - She Moves Me
TTITLE7=John Lee Hooker - My First Wife Left Me
TTITLE8=Little Walter - Everybody Needs Somebody
TTITLE9=Elmore James - Something Inside Of Me
TTITLE10=Jeff Beck - Jeff's Blues
TTITLE11=Eric Clapton - West Coast Idea
TTITLE12=Lightning Hopkins - Mojo Hand
TTITLE13=Howlin' Wolf - You'll Be Mine
TTITLE14=Muddy Waters - I Just Want To Make Love To You
TTITLE15=John Lee Hooker - Hobo Blues
TTITLE16=John Mayall - John Lee Boogie
TTITLE17=BB King - Three O'Clock Blues
TTITLE18=Howlin' Wolf - Who's Been Talking
TTITLE19=Muddy Waters - You Can't Loose What You Ain't Never Had
EXTD=Year: 1992   [CD 2 from 2)
EXTT0=
EXTT1=
EXTT2=
EXTT3=
EXTT4=
EXTT5=
EXTT6=
EXTT7=
EXTT8=
EXTT9=
EXTT10=
EXTT11=
EXTT12=
EXTT13=
EXTT14=
EXTT15=
EXTT16=
EXTT17=
EXTT18=
EXTT19=
PLAYORDER=
